<svg id="Livello_1" data-name="Livello 1" xmlns="http://www.w3.org/2000/svg" viewBox="0 0 1355 508.65"><defs><style>.cls-1{fill:#2293ca;}.cls-2{fill:#f07f00;}</style></defs><path class="cls-1" d="M588.55,176.87h9.9L632.93,257H620.19L612.1,237.2H573.76l-8,19.81H553Zm19.57,50.83-15-36.79h-.23L577.63,227.7Z" transform="translate(-19.72 -40.52)"/><path class="cls-1" d="M641.58,171.44h10.24V257H641.58Z" transform="translate(-19.72 -40.52)"/><path class="cls-1" d="M675.83,233.92a13.48,13.48,0,0,0,1.54,6.4,16.05,16.05,0,0,0,4,4.92,18.7,18.7,0,0,0,5.8,3.17,20.84,20.84,0,0,0,6.84,1.13,15.31,15.31,0,0,0,8.31-2.21,26.66,26.66,0,0,0,6.48-5.82l7.74,5.88q-8.54,11-23.9,11a29.9,29.9,0,0,1-11.55-2.15,25,25,0,0,1-8.76-5.94,26.4,26.4,0,0,1-5.53-8.94,31.7,31.7,0,0,1-1.93-11.15A29.23,29.23,0,0,1,667,219a27.62,27.62,0,0,1,5.81-8.94,26.56,26.56,0,0,1,8.82-5.95A28.59,28.59,0,0,1,692.79,202a26.77,26.77,0,0,1,12.12,2.49,23.89,23.89,0,0,1,8.14,6.51,25.58,25.58,0,0,1,4.61,9.06,37.45,37.45,0,0,1,1.43,10.24v3.62Zm32.32-8.15a21.3,21.3,0,0,0-1.07-6.22,13.8,13.8,0,0,0-2.91-4.93,13.34,13.34,0,0,0-4.83-3.28,17.89,17.89,0,0,0-6.78-1.19,16.38,16.38,0,0,0-6.88,1.42,16.64,16.64,0,0,0-5.29,3.68,16.86,16.86,0,0,0-3.36,5,13.75,13.75,0,0,0-1.2,5.49Z" transform="translate(-19.72 -40.52)"/><path class="cls-1" d="M746.17,228.38l-19.12-25h13.2l13.09,19,12.86-19h12.4l-18.43,25L782,257h-13.2l-15.94-22.52L737,257H724.32Z" transform="translate(-19.72 -40.52)"/><path class="cls-1" d="M790.67,209.93a28.28,28.28,0,0,1,10-6,34.49,34.49,0,0,1,11.39-2,31.62,31.62,0,0,1,10.18,1.47,19.94,19.94,0,0,1,7,4,15.52,15.52,0,0,1,4,5.71,17.82,17.82,0,0,1,1.31,6.74v27.39c0,1.89,0,3.62.11,5.2s.19,3.1.35,4.53h-9.11q-.35-4.06-.34-8.15h-.23a19.47,19.47,0,0,1-8.08,7.36,25.62,25.62,0,0,1-10.81,2.15,25,25,0,0,1-7.17-1,17.48,17.48,0,0,1-6-3.05,14.52,14.52,0,0,1-4-5,17.23,17.23,0,0,1,.85-15.68,17.66,17.66,0,0,1,6.37-5.71A30.73,30.73,0,0,1,806,224.7a66,66,0,0,1,11.55-1H825v-2.26a11.28,11.28,0,0,0-.79-4.07,10.84,10.84,0,0,0-2.4-3.68,11.48,11.48,0,0,0-4-2.61,15.23,15.23,0,0,0-5.69-1,20.84,20.84,0,0,0-5.17.57,23.3,23.3,0,0,0-4,1.41,17.9,17.9,0,0,0-3.31,2c-1,.76-1.93,1.47-2.84,2.15Zm28.9,21.28a73.45,73.45,0,0,0-7.46.39,29.83,29.83,0,0,0-6.94,1.53,13.38,13.38,0,0,0-5.12,3.17,7.18,7.18,0,0,0-2,5.21c0,3.09,1,5.32,3.13,6.67s4.91,2,8.48,2a16.53,16.53,0,0,0,7.16-1.41,13.56,13.56,0,0,0,4.79-3.68,14.29,14.29,0,0,0,2.62-5,20.24,20.24,0,0,0,.79-5.49v-3.39Z" transform="translate(-19.72 -40.52)"/><path class="cls-1" d="M849.5,203.36h10.24v8.26H860a15.14,15.14,0,0,1,6.71-7A22.39,22.39,0,0,1,877.73,202a23.62,23.62,0,0,1,7.45,1.19,16.79,16.79,0,0,1,6.26,3.68,17.69,17.69,0,0,1,4.26,6.4,24.13,24.13,0,0,1,1.6,9.22V257H887.05V225.32a17.94,17.94,0,0,0-1-6.4,11.68,11.68,0,0,0-2.73-4.3,10.24,10.24,0,0,0-3.93-2.37,14.5,14.5,0,0,0-4.61-.74,16.75,16.75,0,0,0-5.91,1,12.22,12.22,0,0,0-4.78,3.23,15.18,15.18,0,0,0-3.19,5.6,25.3,25.3,0,0,0-1.14,8V257H849.5Z" transform="translate(-19.72 -40.52)"/><path class="cls-1" d="M966.84,257H956.59v-7.69h-.22a19.58,19.58,0,0,1-8.14,6.68,25.34,25.34,0,0,1-10.64,2.37,28.7,28.7,0,0,1-11.32-2.15,24.8,24.8,0,0,1-8.65-6,26.84,26.84,0,0,1-5.53-8.94,31.2,31.2,0,0,1-1.93-11.09A31.66,31.66,0,0,1,912.09,219a26.15,26.15,0,0,1,5.53-8.94,25.35,25.35,0,0,1,8.65-5.95A28.7,28.7,0,0,1,937.59,202a25,25,0,0,1,10.92,2.44,18.68,18.68,0,0,1,7.86,6.62h.22V171.44h10.25Zm-28-8.15a18.67,18.67,0,0,0,7.4-1.41,16.46,16.46,0,0,0,5.58-3.85,17.05,17.05,0,0,0,3.52-5.89,23.28,23.28,0,0,0,0-15.05,17.24,17.24,0,0,0-3.52-5.89,16.61,16.61,0,0,0-5.58-3.85,20.12,20.12,0,0,0-14.8,0,16.37,16.37,0,0,0-5.57,3.85,16.8,16.8,0,0,0-3.53,5.89,23.28,23.28,0,0,0,0,15.05,16.62,16.62,0,0,0,3.53,5.89,16.23,16.23,0,0,0,5.57,3.85A18.67,18.67,0,0,0,938.84,248.86Z" transform="translate(-19.72 -40.52)"/><path class="cls-1" d="M990.05,233.92a13.47,13.47,0,0,0,1.53,6.4,16.2,16.2,0,0,0,4,4.92,18.75,18.75,0,0,0,5.81,3.17,20.78,20.78,0,0,0,6.83,1.13,15.28,15.28,0,0,0,8.31-2.21,26.7,26.7,0,0,0,6.49-5.82l7.74,5.88q-8.55,11-23.91,11a29.93,29.93,0,0,1-11.55-2.15,25.08,25.08,0,0,1-8.76-5.94,26.38,26.38,0,0,1-5.52-8.94,31.48,31.48,0,0,1-1.94-11.15A29.05,29.05,0,0,1,981.23,219a27.6,27.6,0,0,1,5.8-8.94,26.66,26.66,0,0,1,8.82-5.95A28.61,28.61,0,0,1,1007,202a26.83,26.83,0,0,1,12.12,2.49,24,24,0,0,1,8.14,6.51,25.56,25.56,0,0,1,4.6,9.06,37.45,37.45,0,0,1,1.43,10.24v3.62Zm32.32-8.15a21.3,21.3,0,0,0-1.08-6.22,13.78,13.78,0,0,0-2.9-4.93,13.47,13.47,0,0,0-4.84-3.28,17.84,17.84,0,0,0-6.77-1.19,16.43,16.43,0,0,0-6.89,1.42,16.76,16.76,0,0,0-5.29,3.68,17,17,0,0,0-3.36,5,13.91,13.91,0,0,0-1.19,5.49Z" transform="translate(-19.72 -40.52)"/><path class="cls-1" d="M1045.59,203.36h10.24v8.26h.23a14.46,14.46,0,0,1,2.73-3.9,18.4,18.4,0,0,1,3.81-3,20.29,20.29,0,0,1,4.61-2,17.73,17.73,0,0,1,5-.74,14.49,14.49,0,0,1,4.55.68l-.45,11c-.84-.22-1.68-.41-2.51-.57a14,14,0,0,0-2.5-.22q-7.51,0-11.49,4.19t-4,13V257h-10.24Z" transform="translate(-19.72 -40.52)"/><path class="cls-1" d="M1124.34,240.26a17.92,17.92,0,0,0,7.57,6.51,22.66,22.66,0,0,0,9.5,2.09A19.35,19.35,0,0,0,1147,248a17,17,0,0,0,5.18-2.54,14,14,0,0,0,3.81-4.19,11.13,11.13,0,0,0,1.47-5.77,8.66,8.66,0,0,0-3-7.08,25.65,25.65,0,0,0-7.34-4.07q-4.38-1.65-9.56-3.17a39.1,39.1,0,0,1-9.56-4.25,23.24,23.24,0,0,1-7.34-7.3q-3-4.57-3-12.39a21.27,21.27,0,0,1,6.37-14.72,26.85,26.85,0,0,1,8.48-5.49,31.74,31.74,0,0,1,12.46-2.2,43.58,43.58,0,0,1,12.63,1.81,21.69,21.69,0,0,1,10.59,7.36l-8.88,8a14.74,14.74,0,0,0-5.8-5.09,18.36,18.36,0,0,0-8.54-1.93,20.91,20.91,0,0,0-7.57,1.19,13.59,13.59,0,0,0-4.84,3.06,10.69,10.69,0,0,0-2.55,4,12,12,0,0,0-.74,4q0,5.1,3,7.81a23,23,0,0,0,7.35,4.41,90.27,90.27,0,0,0,9.55,3.06,41.26,41.26,0,0,1,9.57,3.79,22.06,22.06,0,0,1,7.33,6.57q3,4.13,3,11.37a23.87,23.87,0,0,1-2.21,10.42,23.17,23.17,0,0,1-6,7.8,26.37,26.37,0,0,1-8.87,4.87,34.33,34.33,0,0,1-10.93,1.7,39.74,39.74,0,0,1-14.68-2.72,24.11,24.11,0,0,1-11-8.37Z" transform="translate(-19.72 -40.52)"/><path class="cls-1" d="M1190.34,233.92a13.48,13.48,0,0,0,1.54,6.4,16.05,16.05,0,0,0,4,4.92,18.64,18.64,0,0,0,5.81,3.17,20.73,20.73,0,0,0,6.83,1.13,15.31,15.31,0,0,0,8.31-2.21,26.66,26.66,0,0,0,6.48-5.82l7.74,5.88q-8.53,11-23.9,11a29.9,29.9,0,0,1-11.55-2.15,25.08,25.08,0,0,1-8.76-5.94,26.22,26.22,0,0,1-5.52-8.94,31.48,31.48,0,0,1-1.94-11.15,29.05,29.05,0,0,1,2.11-11.15,27.6,27.6,0,0,1,5.8-8.94,26.66,26.66,0,0,1,8.82-5.95A28.59,28.59,0,0,1,1207.3,202a26.77,26.77,0,0,1,12.12,2.49,23.8,23.8,0,0,1,8.14,6.51,25.58,25.58,0,0,1,4.61,9.06,37.45,37.45,0,0,1,1.43,10.24v3.62Zm32.33-8.15a21.63,21.63,0,0,0-1.08-6.22,13.8,13.8,0,0,0-2.91-4.93,13.34,13.34,0,0,0-4.83-3.28,17.85,17.85,0,0,0-6.78-1.19,16.42,16.42,0,0,0-6.88,1.42,16.64,16.64,0,0,0-5.29,3.68,17,17,0,0,0-3.36,5,13.75,13.75,0,0,0-1.2,5.49Z" transform="translate(-19.72 -40.52)"/><path class="cls-1" d="M1245.89,203.36h10.24v8.26h.22a14.72,14.72,0,0,1,2.74-3.9,17.88,17.88,0,0,1,3.81-3,20.1,20.1,0,0,1,4.61-2,17.67,17.67,0,0,1,5-.74,14.49,14.49,0,0,1,4.55.68l-.46,11c-.83-.22-1.67-.41-2.5-.57a14.16,14.16,0,0,0-2.5-.22q-7.52,0-11.5,4.19t-4,13V257h-10.24Z" transform="translate(-19.72 -40.52)"/><path class="cls-1" d="M1288,203.36h10.23v8.26h.23a14.72,14.72,0,0,1,2.74-3.9,17.88,17.88,0,0,1,3.81-3,20.1,20.1,0,0,1,4.61-2,17.66,17.66,0,0,1,5-.74,14.55,14.55,0,0,1,4.56.68l-.46,11c-.83-.22-1.67-.41-2.5-.57a14.19,14.19,0,0,0-2.51-.22q-7.5,0-11.49,4.19t-4,13V257H1288Z" transform="translate(-19.72 -40.52)"/><path class="cls-1" d="M1330.33,209.93a28.41,28.41,0,0,1,10-6,34.48,34.48,0,0,1,11.38-2,31.64,31.64,0,0,1,10.19,1.47,20,20,0,0,1,7,4,15.52,15.52,0,0,1,4,5.71,17.82,17.82,0,0,1,1.31,6.74v27.39c0,1.89,0,3.62.11,5.2s.19,3.1.35,4.53h-9.11q-.34-4.06-.34-8.15H1365a19.47,19.47,0,0,1-8.08,7.36,25.62,25.62,0,0,1-10.81,2.15,24.9,24.9,0,0,1-7.17-1,17.39,17.39,0,0,1-6-3.05,14.52,14.52,0,0,1-4-5,17.23,17.23,0,0,1,.85-15.68,17.66,17.66,0,0,1,6.37-5.71,30.64,30.64,0,0,1,9.45-3.17,66,66,0,0,1,11.55-1h7.51v-2.26a11.08,11.08,0,0,0-.8-4.07,10.81,10.81,0,0,0-2.39-3.68,11.58,11.58,0,0,0-4-2.61,15.26,15.26,0,0,0-5.69-1,21,21,0,0,0-5.18.57,23.59,23.59,0,0,0-4,1.41,18.15,18.15,0,0,0-3.3,2c-1,.76-1.93,1.47-2.84,2.15Zm28.91,21.28a73.45,73.45,0,0,0-7.46.39,29.83,29.83,0,0,0-6.94,1.53,13.31,13.31,0,0,0-5.12,3.17,7.14,7.14,0,0,0-2,5.21c0,3.09,1,5.32,3.13,6.67s4.91,2,8.48,2a16.53,16.53,0,0,0,7.16-1.41,13.56,13.56,0,0,0,4.79-3.68,14.27,14.27,0,0,0,2.61-5,19.87,19.87,0,0,0,.8-5.49v-3.39Z" transform="translate(-19.72 -40.52)"/><path class="cls-2" d="M735.51,311.78H749.2c.69,0,1.63,0,2.8.08a27.1,27.1,0,0,1,3.79.44,20,20,0,0,1,4,1.17,10.45,10.45,0,0,1,3.5,2.34,9.59,9.59,0,0,1,2.24,3.88,13.45,13.45,0,0,1,.3,5.71,13.9,13.9,0,0,1-5.93,10.08,16.4,16.4,0,0,1-4.64,2.23,30,30,0,0,1-4.68,1l11.71,24.91h-5.52L745.6,339h-9.07l-3.45,24.61h-4.86Zm1.62,22.85h10.31a18.24,18.24,0,0,0,6.37-.95,12.05,12.05,0,0,0,4-2.34,8.88,8.88,0,0,0,2.21-3,12.24,12.24,0,0,0,.92-2.94,9,9,0,0,0,0-2.92,6.25,6.25,0,0,0-1.4-3,8.55,8.55,0,0,0-3.39-2.34,16,16,0,0,0-6.07-.95H739.78Z" transform="translate(-19.72 -40.52)"/><path class="cls-2" d="M800.75,354.12c-.1.63-.2,1.4-.3,2.3s-.18,1.82-.25,2.75-.15,1.8-.23,2.6-.13,1.43-.18,1.87h-4.42c.1-1.27.22-2.49.37-3.66a11.93,11.93,0,0,0,.15-2.28h-.22a14.77,14.77,0,0,1-2.17,2.64,14.56,14.56,0,0,1-2.91,2.16,16.9,16.9,0,0,1-3.54,1.47,14.6,14.6,0,0,1-4,.55,13.61,13.61,0,0,1-6.33-1.25,8.34,8.34,0,0,1-3.5-3.26,10.5,10.5,0,0,1-1.29-4.65,29.33,29.33,0,0,1,.23-5.42L775,329.8h4.42l-2.79,19.92a20.92,20.92,0,0,0-.23,4,8.73,8.73,0,0,0,.81,3.48,5.68,5.68,0,0,0,2.25,2.46,8,8,0,0,0,4.16.91,13.52,13.52,0,0,0,4.71-.84,12.27,12.27,0,0,0,4.12-2.56,14.87,14.87,0,0,0,3.14-4.33,20.81,20.81,0,0,0,1.8-6.11l2.35-16.92h4.42Z" transform="translate(-19.72 -40.52)"/><path class="cls-2" d="M815,339.32c.1-.63.19-1.4.29-2.31s.19-1.81.26-2.74.15-1.8.23-2.6.13-1.43.18-1.87h4.42c-.11,1.27-.22,2.49-.37,3.66a11,11,0,0,0-.15,2.27H820a14.93,14.93,0,0,1,5.08-4.8,17.11,17.11,0,0,1,3.53-1.46,14.34,14.34,0,0,1,4-.55,13.56,13.56,0,0,1,6.32,1.25,8.28,8.28,0,0,1,3.5,3.26,10.37,10.37,0,0,1,1.29,4.65,28.47,28.47,0,0,1-.22,5.42l-2.79,20.14h-4.42l2.79-19.92a22.69,22.69,0,0,0,.23-4,8.9,8.9,0,0,0-.81-3.48,5.74,5.74,0,0,0-2.25-2.46,8,8,0,0,0-4.16-.91,13.52,13.52,0,0,0-4.71.84,12.21,12.21,0,0,0-4.13,2.56,14.93,14.93,0,0,0-3.13,4.32,20.67,20.67,0,0,0-1.81,6.12L816,363.64h-4.42Z" transform="translate(-19.72 -40.52)"/><path class="cls-2" d="M855.9,339.32q.15-.94.3-2.31c.1-.9.18-1.81.26-2.74s.14-1.8.22-2.6.13-1.43.18-1.87h4.42c-.1,1.27-.22,2.49-.37,3.66a10.75,10.75,0,0,0-.14,2.27H861a15.14,15.14,0,0,1,2.18-2.63,14.42,14.42,0,0,1,2.91-2.17,16.88,16.88,0,0,1,3.53-1.46,14.22,14.22,0,0,1,4-.55,13.61,13.61,0,0,1,6.33,1.25,8.34,8.34,0,0,1,3.5,3.26,10.37,10.37,0,0,1,1.28,4.65,29.29,29.29,0,0,1-.21,5.42l-2.8,20.14h-4.42l2.8-19.92a21.75,21.75,0,0,0,.22-4,8.73,8.73,0,0,0-.81-3.48,5.68,5.68,0,0,0-2.25-2.46,8,8,0,0,0-4.16-.91,13.52,13.52,0,0,0-4.71.84,12.17,12.17,0,0,0-4.12,2.56,15.14,15.14,0,0,0-3.14,4.32,21,21,0,0,0-1.8,6.12l-2.35,16.92h-4.42Z" transform="translate(-19.72 -40.52)"/><path class="cls-2" d="M898.91,329.8h4.42l-4.71,33.84H894.2Zm.81-13.4a3.92,3.92,0,0,1,1.29-2.35,3.61,3.61,0,0,1,2.47-.95,2.89,2.89,0,0,1,2.25.95,2.73,2.73,0,0,1,.62,2.35,3.5,3.5,0,0,1-1.25,2.34,3.73,3.73,0,0,1-2.51.95,2.74,2.74,0,0,1-2.21-.95A3,3,0,0,1,899.72,316.4Z" transform="translate(-19.72 -40.52)"/><path class="cls-2" d="M914.52,339.32c.1-.63.19-1.4.29-2.31s.19-1.81.26-2.74.15-1.8.23-2.6.13-1.43.18-1.87h4.42c-.11,1.27-.22,2.49-.37,3.66a11,11,0,0,0-.15,2.27h.22a14.93,14.93,0,0,1,5.08-4.8,17,17,0,0,1,3.54-1.46,14.22,14.22,0,0,1,4-.55,13.56,13.56,0,0,1,6.32,1.25,8.28,8.28,0,0,1,3.5,3.26,10.37,10.37,0,0,1,1.29,4.65,28.47,28.47,0,0,1-.22,5.42l-2.79,20.14h-4.42l2.8-19.92a23.67,23.67,0,0,0,.22-4,8.73,8.73,0,0,0-.81-3.48,5.74,5.74,0,0,0-2.25-2.46,8,8,0,0,0-4.16-.91,13.52,13.52,0,0,0-4.71.84,12.21,12.21,0,0,0-4.13,2.56,14.93,14.93,0,0,0-3.13,4.32,20.38,20.38,0,0,0-1.8,6.12l-2.36,16.92h-4.42Z" transform="translate(-19.72 -40.52)"/><path class="cls-2" d="M986.54,361.44a26,26,0,0,1-3.31,10.18,20.55,20.55,0,0,1-5.45,6,17.79,17.79,0,0,1-6.3,2.85,27.09,27.09,0,0,1-5.85.74,23.68,23.68,0,0,1-9.47-1.87,13.88,13.88,0,0,1-6.44-5.24l4-3.22a11.14,11.14,0,0,0,5.15,4.83,18.72,18.72,0,0,0,13.11.66,13.66,13.66,0,0,0,7-5.45,17.46,17.46,0,0,0,1.74-3.45,22.21,22.21,0,0,0,.92-3.26c.19-1,.34-1.85.44-2.49l.66-4.69h-.15a16.64,16.64,0,0,1-5.85,4.84,17.41,17.41,0,0,1-7.92,1.76,17,17,0,0,1-6.88-1.36,14.82,14.82,0,0,1-8.87-16,18,18,0,0,1,2.39-6.74,21.25,21.25,0,0,1,4.68-5.49,23,23,0,0,1,6.29-3.74,19.59,19.59,0,0,1,7.25-1.39,14.58,14.58,0,0,1,7.44,1.76,11,11,0,0,1,4.49,4.83h.15l.81-5.71H991Zm-2.13-15.16a12.84,12.84,0,0,0-.34-5.24,10.73,10.73,0,0,0-2.28-4.25,11.76,11.76,0,0,0-3.86-2.85,11.91,11.91,0,0,0-5.08-1.06,14.22,14.22,0,0,0-5.42,1.06,17.33,17.33,0,0,0-4.71,2.85,16,16,0,0,0-3.5,4.25,14.4,14.4,0,0,0-1.77,5.24,13,13,0,0,0,.33,5.24,10.76,10.76,0,0,0,2.29,4.24,11.59,11.59,0,0,0,3.87,2.86,11.81,11.81,0,0,0,5.08,1.06,14.25,14.25,0,0,0,5.41-1.06,17.11,17.11,0,0,0,4.71-2.86,15.8,15.8,0,0,0,3.5-4.24A14.4,14.4,0,0,0,984.41,346.28Z" transform="translate(-19.72 -40.52)"/><path class="cls-2" d="M1061.5,355.51a26.48,26.48,0,0,1-9.68,7.25,28.4,28.4,0,0,1-11,2.2,26.57,26.57,0,0,1-10.64-2,20.5,20.5,0,0,1-7.73-5.64,21.08,21.08,0,0,1-4.31-8.64,29,29,0,0,1-.44-11,33.11,33.11,0,0,1,3.57-10.91,31.33,31.33,0,0,1,6.78-8.61,30.92,30.92,0,0,1,9.31-5.68,30.56,30.56,0,0,1,11.2-2,24.26,24.26,0,0,1,9.64,1.86,15.78,15.78,0,0,1,7.14,6.26l-4.42,3.3a12,12,0,0,0-5.51-5.31,17.24,17.24,0,0,0-7.52-1.72,24.81,24.81,0,0,0-17.08,6.59,26,26,0,0,0-5.45,7.25,27.78,27.78,0,0,0-2.8,9,24.94,24.94,0,0,0,.3,9,17.91,17.91,0,0,0,3.38,7.25,16.71,16.71,0,0,0,6.26,4.83,21.05,21.05,0,0,0,8.91,1.76,19.26,19.26,0,0,0,4.16-.48,21.87,21.87,0,0,0,4.38-1.46,23.39,23.39,0,0,0,4.27-2.49,19.46,19.46,0,0,0,3.76-3.62Z" transform="translate(-19.72 -40.52)"/><path class="cls-2" d="M1068.5,346.72a19.8,19.8,0,0,1,2.32-7.14,20.66,20.66,0,0,1,4.49-5.64,19.67,19.67,0,0,1,6.18-3.7,20.78,20.78,0,0,1,7.4-1.32,17.65,17.65,0,0,1,7,1.32,13.87,13.87,0,0,1,5.15,3.7,13.62,13.62,0,0,1,2.91,5.64,18.49,18.49,0,0,1,.33,7.14,21.52,21.52,0,0,1-2.35,7.14,20.34,20.34,0,0,1-18,10.66,18,18,0,0,1-7-1.32,13.55,13.55,0,0,1-5.15-3.7,14.43,14.43,0,0,1-2.91-5.64A17.25,17.25,0,0,1,1068.5,346.72Zm4.42,0a14,14,0,0,0,.14,5.38,11,11,0,0,0,2.06,4.4,10.44,10.44,0,0,0,3.83,3,12.66,12.66,0,0,0,5.45,1.1,14.68,14.68,0,0,0,5.74-1.1,15.59,15.59,0,0,0,4.68-3,15.34,15.34,0,0,0,3.31-4.4,17.3,17.3,0,0,0,1.73-5.38,14,14,0,0,0-.14-5.38,11.18,11.18,0,0,0-2.06-4.4,10.57,10.57,0,0,0-3.83-3,12.81,12.81,0,0,0-5.45-1.09,14.94,14.94,0,0,0-5.75,1.09,16,16,0,0,0-4.67,3,15.74,15.74,0,0,0-3.32,4.4A17.74,17.74,0,0,0,1072.92,346.72Z" transform="translate(-19.72 -40.52)"/><path class="cls-2" d="M1140.22,349.43c-.25,1.66-.45,3.15-.63,4.47s-.3,2.54-.4,3.66-.17,2.17-.22,3.15-.08,2-.08,2.93h-4.12a23.23,23.23,0,0,1,0-2.64c0-.93.15-1.88.3-2.86h-.15a15,15,0,0,1-5.41,4.84,16.28,16.28,0,0,1-7.4,1.54,16.72,16.72,0,0,1-4.27-.55,9.89,9.89,0,0,1-3.61-1.76,7.3,7.3,0,0,1-2.32-3.11,8.91,8.91,0,0,1-.41-4.62,10.12,10.12,0,0,1,2.87-6.15,15.75,15.75,0,0,1,5.41-3.41,25.85,25.85,0,0,1,6.38-1.46c2.21-.22,4.14-.33,5.81-.33h5.16l.29-2.05c.4-2.93-.22-5-1.84-6.3a10.35,10.35,0,0,0-6.55-1.9,17.69,17.69,0,0,0-11,3.81l-2.14-3a19.19,19.19,0,0,1,6.55-3.55,23.39,23.39,0,0,1,7.08-1.21q6.18,0,9.46,2.9c2.18,1.92,3,5,2.39,9.33Zm-8.46-2.78a41.54,41.54,0,0,0-5.5.36,20.12,20.12,0,0,0-4.85,1.25,11.1,11.1,0,0,0-3.68,2.34,6.09,6.09,0,0,0-1.81,3.66,5,5,0,0,0,.3,2.75,4.73,4.73,0,0,0,1.51,2,7.13,7.13,0,0,0,2.32,1.17,9.23,9.23,0,0,0,2.72.4,15.39,15.39,0,0,0,6-1,11.94,11.94,0,0,0,4-2.68,11.69,11.69,0,0,0,2.42-3.73,17.59,17.59,0,0,0,1.15-4.21l.29-2.27Z" transform="translate(-19.72 -40.52)"/><path class="cls-2" d="M1179.18,358.66a19.77,19.77,0,0,1-6.3,4.43,17.78,17.78,0,0,1-7,1.43,18,18,0,0,1-7-1.32,13.55,13.55,0,0,1-5.15-3.7,14.43,14.43,0,0,1-2.91-5.64,17.25,17.25,0,0,1-.29-7.14,19.8,19.8,0,0,1,2.32-7.14,20.85,20.85,0,0,1,4.49-5.64,19.61,19.61,0,0,1,6.19-3.7,20.7,20.7,0,0,1,7.4-1.32,14.41,14.41,0,0,1,6.73,1.54,15.1,15.1,0,0,1,5.12,4.32l-3.9,2.64a13.45,13.45,0,0,0-3.76-3.33,9.1,9.1,0,0,0-4.71-1.21,14.94,14.94,0,0,0-5.75,1.09,16,16,0,0,0-4.67,3,15.74,15.74,0,0,0-3.32,4.4,17.74,17.74,0,0,0-1.72,5.38,14,14,0,0,0,.14,5.38,11,11,0,0,0,2.06,4.4,10.44,10.44,0,0,0,3.83,3,12.66,12.66,0,0,0,5.45,1.1,11.46,11.46,0,0,0,5.31-1.28,16.33,16.33,0,0,0,4.49-3.41Z" transform="translate(-19.72 -40.52)"/><path class="cls-2" d="M1193.24,308.27h4.42l-3.9,27.46h.14a15.14,15.14,0,0,1,2.18-2.63,14.14,14.14,0,0,1,2.91-2.17,16.88,16.88,0,0,1,3.53-1.46,14.22,14.22,0,0,1,4-.55,13.61,13.61,0,0,1,6.33,1.25,8.25,8.25,0,0,1,3.49,3.26,10.37,10.37,0,0,1,1.29,4.65,29.29,29.29,0,0,1-.21,5.42l-2.8,20.14h-4.42l2.8-19.92a22.67,22.67,0,0,0,.22-4,8.73,8.73,0,0,0-.81-3.48,5.68,5.68,0,0,0-2.25-2.46,8,8,0,0,0-4.16-.91,13.52,13.52,0,0,0-4.71.84,12.31,12.31,0,0,0-4.13,2.56,15.11,15.11,0,0,0-3.13,4.32,20.67,20.67,0,0,0-1.8,6.12l-2.36,16.92h-4.42Z" transform="translate(-19.72 -40.52)"/><path class="cls-1" d="M223.56,40.52,543.76,86c38.45,5.46,50.9,54.53,19.67,77.49L449.08,247.57l120.78,30A76.93,76.93,0,0,1,628,344.47l20.61,204.7L568.41,375.49a112.62,112.62,0,0,0-47-50.91l-85.3-48L298.42,372.33a118.86,118.86,0,0,1-69.92,21.24L19.72,389.92l204.15-28a128.92,128.92,0,0,0,79-42.23l87.8-99.23c35.08-39.65,20.66-101.84-28.32-122.21Z" transform="translate(-19.72 -40.52)"/><ellipse class="cls-2" cx="653.83" cy="94.78" rx="68.31" ry="44.78" transform="translate(-20.82 141.09) rotate(-15.8)"/></svg>