<?xml version="1.0" encoding="UTF-8"?>
<!DOCTYPE svg PUBLIC "-//W3C//DTD SVG 1.1//EN" "http://www.w3.org/Graphics/SVG/1.1/DTD/svg11.dtd">
<svg xmlns="http://www.w3.org/2000/svg" version="1.1" width="3508px" height="2480px" style="shape-rendering:geometricPrecision; text-rendering:geometricPrecision; image-rendering:optimizeQuality; fill-rule:evenodd; clip-rule:evenodd" xmlns:xlink="http://www.w3.org/1999/xlink">
<g><path style="opacity:0.999" fill="#fcfcfc" d="M 857.5,882.5 C 919.164,881.325 946.997,911.325 941,972.5C 935.488,1000.03 925.821,1026.03 912,1050.5C 877.473,1110.97 832.973,1163.14 778.5,1207C 754.349,1226.42 727.682,1241.75 698.5,1253C 669.451,1264.3 640.118,1265.3 610.5,1256C 591.421,1247.36 579.254,1232.86 574,1212.5C 570.175,1188.94 573.175,1166.27 583,1144.5C 597.369,1114.3 617.202,1088.13 642.5,1066C 672.182,1039.69 705.515,1019.03 742.5,1004C 762.398,995.82 783.064,992.153 804.5,993C 831.953,996.103 844.119,1011.27 841,1038.5C 861.57,1015.03 875.57,988.031 883,957.5C 886.442,936.213 878.275,921.38 858.5,913C 840.958,907.385 823.292,907.051 805.5,912C 765.062,922.305 727.895,939.472 694,963.5C 691.685,961.465 690.852,959.132 691.5,956.5C 732.708,921.896 779.708,898.396 832.5,886C 840.948,884.578 849.282,883.412 857.5,882.5 Z M 797.5,1087.5 C 795.167,1089.17 793.167,1091.17 791.5,1093.5C 773.146,1110.84 753.146,1126.01 731.5,1139C 716.954,1147.55 701.287,1151.55 684.5,1151C 670.708,1148.45 663.375,1140.11 662.5,1126C 663.474,1116.88 666.307,1108.38 671,1100.5C 692.942,1067.94 721.775,1043.44 757.5,1027C 771.168,1020.67 785.502,1017.67 800.5,1018C 819.864,1021.2 826.697,1032.36 821,1051.5C 815.918,1065.34 808.084,1077.34 797.5,1087.5 Z"/></g>
<g><path style="opacity:0.998" fill="#fcfcfc" d="M 1427.5,964.5 C 1476.07,960.184 1507.57,981.184 1522,1027.5C 1530.1,1061.12 1529.1,1094.46 1519,1127.5C 1503.03,1166.58 1473.86,1184.42 1431.5,1181C 1399.55,1177.05 1377.38,1160.22 1365,1130.5C 1355.59,1102.84 1352.92,1074.51 1357,1045.5C 1359.85,1019.3 1371.02,997.465 1390.5,980C 1401.73,972.045 1414.07,966.878 1427.5,964.5 Z M 1432.5,1002.5 C 1454.31,999.651 1469.47,1008.32 1478,1028.5C 1487.59,1057.05 1487.93,1085.71 1479,1114.5C 1470.81,1137.01 1454.98,1146.17 1431.5,1142C 1418.85,1138.02 1410.02,1129.85 1405,1117.5C 1395.41,1088.62 1395.08,1059.62 1404,1030.5C 1409.47,1016.87 1418.97,1007.53 1432.5,1002.5 Z"/></g>
<g><path style="opacity:0.278" fill="#d7d7d7" d="M 1173.5,1004.5 C 1173.5,992.5 1173.5,980.5 1173.5,968.5C 1132.83,968.5 1092.17,968.5 1051.5,968.5C 1051.5,1038.17 1051.5,1107.83 1051.5,1177.5C 1050.5,1107.67 1050.17,1037.67 1050.5,967.5C 1091.83,967.5 1133.17,967.5 1174.5,967.5C 1174.83,980.011 1174.5,992.345 1173.5,1004.5 Z"/></g>
<g><path style="opacity:0.997" fill="#fdfdfd" d="M 1173.5,1004.5 C 1146.17,1004.5 1118.83,1004.5 1091.5,1004.5C 1091.5,1021.83 1091.5,1039.17 1091.5,1056.5C 1114.5,1056.5 1137.5,1056.5 1160.5,1056.5C 1160.5,1068.5 1160.5,1080.5 1160.5,1092.5C 1137.5,1092.5 1114.5,1092.5 1091.5,1092.5C 1091.5,1120.83 1091.5,1149.17 1091.5,1177.5C 1078.17,1177.5 1064.83,1177.5 1051.5,1177.5C 1051.5,1107.83 1051.5,1038.17 1051.5,968.5C 1092.17,968.5 1132.83,968.5 1173.5,968.5C 1173.5,980.5 1173.5,992.5 1173.5,1004.5 Z"/></g>
<g><path style="opacity:0.216" fill="#d9d9d9" d="M 1279.5,968.5 C 1251.83,968.5 1224.17,968.5 1196.5,968.5C 1196.5,1038.17 1196.5,1107.83 1196.5,1177.5C 1195.5,1107.67 1195.17,1037.67 1195.5,967.5C 1223.67,967.169 1251.67,967.502 1279.5,968.5 Z"/></g>
<g><path style="opacity:0.998" fill="#fdfdfd" d="M 1279.5,968.5 C 1314.49,970.823 1333.16,989.49 1335.5,1024.5C 1335.4,1047.06 1325.07,1062.72 1304.5,1071.5C 1316.26,1074.09 1324.1,1081.09 1328,1092.5C 1329.79,1098.37 1330.79,1104.37 1331,1110.5C 1331.82,1132.84 1332.65,1155.17 1333.5,1177.5C 1320.5,1177.5 1307.5,1177.5 1294.5,1177.5C 1293.63,1154.18 1292.8,1130.84 1292,1107.5C 1291.02,1100.53 1287.19,1096.03 1280.5,1094C 1265.84,1093.5 1251.17,1093.33 1236.5,1093.5C 1236.5,1121.5 1236.5,1149.5 1236.5,1177.5C 1223.17,1177.5 1209.83,1177.5 1196.5,1177.5C 1196.5,1107.83 1196.5,1038.17 1196.5,968.5C 1224.17,968.5 1251.83,968.5 1279.5,968.5 Z M 1236.5,1004.5 C 1249.17,1004.33 1261.84,1004.5 1274.5,1005C 1292.79,1010.14 1299.29,1021.97 1294,1040.5C 1290.19,1049.66 1283.36,1054.82 1273.5,1056C 1261.17,1056.5 1248.84,1056.67 1236.5,1056.5C 1236.5,1039.17 1236.5,1021.83 1236.5,1004.5 Z"/></g>
<g><path style="opacity:0.999" fill="#fcfcfc" d="M 1662.5,1075.5 C 1662.5,1039.83 1662.5,1004.17 1662.5,968.5C 1675.17,968.5 1687.83,968.5 1700.5,968.5C 1700.5,1038.17 1700.5,1107.83 1700.5,1177.5C 1687.48,1177.83 1674.48,1177.5 1661.5,1176.5C 1638.33,1130.17 1615.17,1083.83 1592,1037.5C 1592.32,1084.16 1592.48,1130.83 1592.5,1177.5C 1579.17,1177.5 1565.83,1177.5 1552.5,1177.5C 1552.5,1107.5 1552.5,1037.5 1552.5,967.5C 1567.85,967.167 1583.18,967.501 1598.5,968.5C 1619.94,1011.04 1641.1,1053.71 1662,1096.5C 1662.5,1089.51 1662.67,1082.51 1662.5,1075.5 Z"/></g>
<g><path style="opacity:0.337" fill="#e9e9e9" d="M 1700.5,1177.5 C 1700.5,1107.83 1700.5,1038.17 1700.5,968.5C 1687.83,968.5 1675.17,968.5 1662.5,968.5C 1662.5,1004.17 1662.5,1039.83 1662.5,1075.5C 1661.5,1039.67 1661.17,1003.67 1661.5,967.5C 1674.83,967.5 1688.17,967.5 1701.5,967.5C 1701.83,1037.67 1701.5,1107.67 1700.5,1177.5 Z"/></g>
<g><path style="opacity:0.999" fill="#fdfdfd" d="M 1723.5,967.5 C 1770.5,967.5 1817.5,967.5 1864.5,967.5C 1864.5,979.833 1864.5,992.167 1864.5,1004.5C 1847.83,1004.5 1831.17,1004.5 1814.5,1004.5C 1814.5,1062.17 1814.5,1119.83 1814.5,1177.5C 1800.83,1177.5 1787.17,1177.5 1773.5,1177.5C 1773.5,1119.83 1773.5,1062.17 1773.5,1004.5C 1756.83,1004.5 1740.17,1004.5 1723.5,1004.5C 1723.5,992.167 1723.5,979.833 1723.5,967.5 Z"/></g>
<g><path style="opacity:0.337" fill="#e8e8e8" d="M 1970.5,968.5 C 1942.83,968.5 1915.17,968.5 1887.5,968.5C 1887.5,1038.17 1887.5,1107.83 1887.5,1177.5C 1886.5,1107.67 1886.17,1037.67 1886.5,967.5C 1914.67,967.169 1942.67,967.502 1970.5,968.5 Z"/></g>
<g><path style="opacity:0.999" fill="#fdfdfd" d="M 1970.5,968.5 C 2005.5,970.83 2024.16,989.497 2026.5,1024.5C 2026.39,1047.09 2016.06,1062.75 1995.5,1071.5C 2008.87,1074.7 2017.03,1083.03 2020,1096.5C 2021.03,1101.78 2021.69,1107.12 2022,1112.5C 2022.71,1134.18 2023.55,1155.84 2024.5,1177.5C 2011.5,1177.5 1998.5,1177.5 1985.5,1177.5C 1984.5,1154.53 1983.67,1131.53 1983,1108.5C 1982.47,1100.98 1978.64,1096.14 1971.5,1094C 1956.84,1093.5 1942.17,1093.33 1927.5,1093.5C 1927.5,1121.5 1927.5,1149.5 1927.5,1177.5C 1914.17,1177.5 1900.83,1177.5 1887.5,1177.5C 1887.5,1107.83 1887.5,1038.17 1887.5,968.5C 1915.17,968.5 1942.83,968.5 1970.5,968.5 Z M 1927.5,1004.5 C 1940.17,1004.33 1952.84,1004.5 1965.5,1005C 1983.79,1010.12 1990.29,1021.95 1985,1040.5C 1981.19,1049.66 1974.36,1054.82 1964.5,1056C 1952.17,1056.5 1939.84,1056.67 1927.5,1056.5C 1927.5,1039.17 1927.5,1021.83 1927.5,1004.5 Z"/></g>
<g><path style="opacity:0.998" fill="#fdfdfd" d="M 2050.5,968.5 C 2063.83,968.5 2077.17,968.5 2090.5,968.5C 2090.17,1015.67 2090.5,1062.67 2091.5,1109.5C 2094.55,1136.69 2109.55,1147.86 2136.5,1143C 2150.92,1137.06 2158.58,1126.23 2159.5,1110.5C 2160.5,1063.34 2160.83,1016 2160.5,968.5C 2173.83,968.5 2187.17,968.5 2200.5,968.5C 2200.67,1017.83 2200.5,1067.17 2200,1116.5C 2194.31,1160.02 2169.47,1181.69 2125.5,1181.5C 2081.06,1181.56 2056.23,1159.56 2051,1115.5C 2050.5,1066.5 2050.33,1017.5 2050.5,968.5 Z"/></g>
<g><path style="opacity:0.339" fill="#e8e8e8" d="M 2050.5,968.5 C 2063.99,967.504 2077.66,967.171 2091.5,967.5C 2091.5,1014.83 2091.5,1062.17 2091.5,1109.5C 2090.5,1062.67 2090.17,1015.67 2090.5,968.5C 2077.17,968.5 2063.83,968.5 2050.5,968.5 Z"/></g>
<g><path style="opacity:0.279" fill="#e1e1e1" d="M 2200.5,968.5 C 2187.17,968.5 2173.83,968.5 2160.5,968.5C 2160.83,1016 2160.5,1063.34 2159.5,1110.5C 2159.5,1062.83 2159.5,1015.17 2159.5,967.5C 2173.34,967.171 2187.01,967.504 2200.5,968.5 Z"/></g>
<g><path style="opacity:0.29" fill="#e1e1e1" d="M 2275.5,968.5 C 2260.5,968.5 2245.5,968.5 2230.5,968.5C 2230.5,1038.17 2230.5,1107.83 2230.5,1177.5C 2229.5,1107.67 2229.17,1037.67 2229.5,967.5C 2245.01,967.17 2260.34,967.504 2275.5,968.5 Z"/></g>
<g><path style="opacity:0.997" fill="#fcfcfc" d="M 2230.5,1177.5 C 2230.5,1107.83 2230.5,1038.17 2230.5,968.5C 2245.5,968.5 2260.5,968.5 2275.5,968.5C 2296.95,1011.41 2318.45,1054.41 2340,1097.5C 2338.76,1054.23 2338.26,1010.9 2338.5,967.5C 2351.83,967.5 2365.17,967.5 2378.5,967.5C 2378.5,1037.5 2378.5,1107.5 2378.5,1177.5C 2365.25,1177.82 2352.09,1177.49 2339,1176.5C 2315.67,1129.83 2292.33,1083.17 2269,1036.5C 2269.4,1083.49 2269.57,1130.49 2269.5,1177.5C 2256.5,1177.5 2243.5,1177.5 2230.5,1177.5 Z"/></g>
<g><path style="opacity:0.998" fill="#fcfcfc" d="M 2410.5,967.5 C 2425.85,967.167 2441.18,967.501 2456.5,968.5C 2477.4,1011.29 2498.56,1053.96 2520,1096.5C 2519.57,1053.51 2519.41,1010.51 2519.5,967.5C 2532.83,967.5 2546.17,967.5 2559.5,967.5C 2559.5,1037.5 2559.5,1107.5 2559.5,1177.5C 2546.15,1177.83 2532.82,1177.5 2519.5,1176.5C 2496,1129.5 2472.5,1082.5 2449,1035.5C 2449.46,1082.81 2449.63,1130.14 2449.5,1177.5C 2436.5,1177.5 2423.5,1177.5 2410.5,1177.5C 2410.5,1107.5 2410.5,1037.5 2410.5,967.5 Z"/></g>
<g><path style="opacity:0.6" fill="#f2f2f2" d="M 2631.5,1004.5 C 2656.99,1003.5 2682.66,1003.17 2708.5,1003.5C 2708.5,991.833 2708.5,980.167 2708.5,968.5C 2669.5,968.5 2630.5,968.5 2591.5,968.5C 2591.5,1038.17 2591.5,1107.83 2591.5,1177.5C 2590.5,1107.67 2590.17,1037.67 2590.5,967.5C 2630.17,967.5 2669.83,967.5 2709.5,967.5C 2709.5,979.833 2709.5,992.167 2709.5,1004.5C 2683.5,1004.5 2657.5,1004.5 2631.5,1004.5 Z"/></g>
<g><path style="opacity:0.999" fill="#fdfdfd" d="M 2631.5,1004.5 C 2631.5,1019.17 2631.5,1033.83 2631.5,1048.5C 2653.5,1048.5 2675.5,1048.5 2697.5,1048.5C 2697.5,1060.5 2697.5,1072.5 2697.5,1084.5C 2675.33,1084.17 2653.33,1084.5 2631.5,1085.5C 2631.5,1104.17 2631.5,1122.83 2631.5,1141.5C 2658.17,1141.5 2684.83,1141.5 2711.5,1141.5C 2711.5,1153.5 2711.5,1165.5 2711.5,1177.5C 2671.5,1177.5 2631.5,1177.5 2591.5,1177.5C 2591.5,1107.83 2591.5,1038.17 2591.5,968.5C 2630.5,968.5 2669.5,968.5 2708.5,968.5C 2708.5,980.167 2708.5,991.833 2708.5,1003.5C 2682.66,1003.17 2656.99,1003.5 2631.5,1004.5 Z"/></g>
<g><path style="opacity:0.337" fill="#e8e8e8" d="M 2817.5,968.5 C 2789.83,968.5 2762.17,968.5 2734.5,968.5C 2734.5,1038.17 2734.5,1107.83 2734.5,1177.5C 2733.5,1107.67 2733.17,1037.67 2733.5,967.5C 2761.67,967.169 2789.67,967.502 2817.5,968.5 Z"/></g>
<g><path style="opacity:0.999" fill="#fdfdfd" d="M 2817.5,968.5 C 2852.5,970.83 2871.16,989.497 2873.5,1024.5C 2873.39,1047.09 2863.06,1062.75 2842.5,1071.5C 2855.87,1074.7 2864.03,1083.03 2867,1096.5C 2868.03,1101.78 2868.69,1107.12 2869,1112.5C 2869.71,1134.18 2870.55,1155.84 2871.5,1177.5C 2858.5,1177.5 2845.5,1177.5 2832.5,1177.5C 2831.5,1154.53 2830.67,1131.53 2830,1108.5C 2829.47,1100.98 2825.64,1096.14 2818.5,1094C 2803.84,1093.5 2789.17,1093.33 2774.5,1093.5C 2774.5,1121.5 2774.5,1149.5 2774.5,1177.5C 2761.17,1177.5 2747.83,1177.5 2734.5,1177.5C 2734.5,1107.83 2734.5,1038.17 2734.5,968.5C 2762.17,968.5 2789.83,968.5 2817.5,968.5 Z M 2774.5,1004.5 C 2787.17,1004.33 2799.84,1004.5 2812.5,1005C 2830.79,1010.12 2837.29,1021.95 2832,1040.5C 2828.19,1049.66 2821.36,1054.82 2811.5,1056C 2799.17,1056.5 2786.84,1056.67 2774.5,1056.5C 2774.5,1039.17 2774.5,1021.83 2774.5,1004.5 Z"/></g>
<g><path style="opacity:0.216" fill="#d1d1d1" d="M 2697.5,1048.5 C 2698.5,1060.66 2698.83,1072.99 2698.5,1085.5C 2676.17,1085.5 2653.83,1085.5 2631.5,1085.5C 2653.33,1084.5 2675.33,1084.17 2697.5,1084.5C 2697.5,1072.5 2697.5,1060.5 2697.5,1048.5 Z"/></g>
<g><path style="opacity:0.706" fill="#bfbfbf" d="M 797.5,1087.5 C 796.5,1090.5 794.5,1092.5 791.5,1093.5C 793.167,1091.17 795.167,1089.17 797.5,1087.5 Z"/></g>
<g><path style="opacity:1" fill="#f6f6f6" d="M 2430.5,1252.5 C 2436.17,1252.5 2441.83,1252.5 2447.5,1252.5C 2447.5,1298.5 2447.5,1344.5 2447.5,1390.5C 2441.83,1390.5 2436.17,1390.5 2430.5,1390.5C 2430.5,1344.5 2430.5,1298.5 2430.5,1252.5 Z"/></g>
<g><path style="opacity:1" fill="#fcfcfc" d="M 2553.5,1266.5 C 2541.17,1266.5 2528.83,1266.5 2516.5,1266.5C 2516.5,1307.83 2516.5,1349.17 2516.5,1390.5C 2511.5,1390.5 2506.5,1390.5 2501.5,1390.5C 2501.5,1349.5 2501.5,1308.5 2501.5,1267.5C 2489.17,1267.5 2476.83,1267.5 2464.5,1267.5C 2464.5,1262.5 2464.5,1257.5 2464.5,1252.5C 2494.17,1252.5 2523.83,1252.5 2553.5,1252.5C 2553.5,1257.17 2553.5,1261.83 2553.5,1266.5 Z"/></g>
<g><path style="opacity:0.996" fill="#f9f9f9" d="M 2606.5,1252.5 C 2613.5,1252.5 2620.5,1252.5 2627.5,1252.5C 2642.43,1298.28 2657.76,1343.95 2673.5,1389.5C 2667.61,1390.81 2661.78,1390.81 2656,1389.5C 2653.13,1379.73 2649.97,1370.07 2646.5,1360.5C 2626.83,1359.17 2607.17,1359.17 2587.5,1360.5C 2584.17,1370.17 2580.83,1379.83 2577.5,1389.5C 2571.83,1390.83 2566.17,1390.83 2560.5,1389.5C 2576.24,1343.96 2591.57,1298.29 2606.5,1252.5 Z M 2616.5,1270.5 C 2624.7,1294.95 2633.04,1319.45 2641.5,1344C 2625.16,1344.83 2608.82,1344.67 2592.5,1343.5C 2600.91,1319.28 2608.91,1294.95 2616.5,1270.5 Z"/></g>
<g><path style="opacity:0.999" fill="#f6f6f6" d="M 2686.5,1252.5 C 2692.17,1252.5 2697.83,1252.5 2703.5,1252.5C 2703.5,1293.5 2703.5,1334.5 2703.5,1375.5C 2723.5,1375.5 2743.5,1375.5 2763.5,1375.5C 2763.5,1380.5 2763.5,1385.5 2763.5,1390.5C 2737.83,1390.5 2712.17,1390.5 2686.5,1390.5C 2686.5,1344.5 2686.5,1298.5 2686.5,1252.5 Z"/></g>
<g><path style="opacity:0.993" fill="#fafafa" d="M 2769.5,1252.5 C 2775.54,1252.17 2781.54,1252.5 2787.5,1253.5C 2797.82,1274.81 2808.66,1295.81 2820,1316.5C 2830.41,1295.34 2841.08,1274.34 2852,1253.5C 2858.08,1252.36 2864.25,1252.19 2870.5,1253C 2856.21,1279.75 2842.04,1306.59 2828,1333.5C 2827.5,1352.5 2827.33,1371.5 2827.5,1390.5C 2822.17,1390.5 2816.83,1390.5 2811.5,1390.5C 2811.67,1371.5 2811.5,1352.5 2811,1333.5C 2797.14,1306.45 2783.31,1279.45 2769.5,1252.5 Z"/></g>
<g><path style="opacity:0.298" fill="#d0d0d0" d="M 2553.5,1266.5 C 2541.68,1267.5 2529.68,1267.83 2517.5,1267.5C 2517.83,1308.67 2517.5,1349.67 2516.5,1390.5C 2516.5,1349.17 2516.5,1307.83 2516.5,1266.5C 2528.83,1266.5 2541.17,1266.5 2553.5,1266.5 Z"/></g>
</svg>
