<?xml version="1.0" encoding="utf-8"?>
<!-- Generator: Adobe Illustrator 16.0.0, SVG Export Plug-In . SVG Version: 6.00 Build 0)  -->
<!DOCTYPE svg PUBLIC "-//W3C//DTD SVG 1.1//EN" "http://www.w3.org/Graphics/SVG/1.1/DTD/svg11.dtd">
<svg version="1.1" id="Ebene_1" xmlns="http://www.w3.org/2000/svg" xmlns:xlink="http://www.w3.org/1999/xlink" x="0px" y="0px"
	 width="354px" height="80px" viewBox="48.5 0 354 80" enable-background="new 48.5 0 354 80" xml:space="preserve">
<g>
	<g fill="#fff">
		<path d="M136.266,55.16h-3.055l-16.073-24.276V55.16h-3.221V24.874h3.055l16.073,24.208V24.874h3.221V55.16L136.266,55.16z"/>
		<path d="M176.88,27.597c2.856,2.856,3.055,5.479,3.055,12.42s-0.199,9.563-3.055,12.42c-1.859,1.86-4.383,2.989-7.538,2.989
			c-3.155,0-5.712-1.096-7.572-2.989c-2.856-2.856-3.022-5.479-3.022-12.42s0.166-9.564,3.022-12.42
			c1.86-1.86,4.417-2.989,7.572-2.989C172.497,24.608,175.021,25.704,176.88,27.597z M164.128,29.622
			c-1.926,1.959-2.125,4.151-2.125,10.395c0,6.21,0.199,8.435,2.125,10.395c1.395,1.395,3.188,2.125,5.247,2.125
			c2.025,0,3.819-0.73,5.247-2.125c1.926-1.96,2.125-4.185,2.125-10.395s-0.199-8.435-2.125-10.395
			c-1.395-1.395-3.188-2.125-5.247-2.125C167.316,27.497,165.523,28.228,164.128,29.622z"/>
		<path d="M210.986,55.16h-2.624L198.4,24.874h3.387l7.871,24.507l7.87-24.507h3.421L210.986,55.16z"/>
		<path d="M261.662,55.16h-3.453l-2.424-6.842h-13.218l-2.425,6.842h-3.453l11.158-30.287h2.723L261.662,55.16z M243.53,45.496
			h11.258l-5.612-16.04L243.53,45.496z"/>
		<path d="M300.218,27.763h-15.575v11.158h13.284v2.89h-13.284v13.35h-3.221V24.874h18.796V27.763L300.218,27.763z"/>
		<path d="M337.943,27.597c2.855,2.856,3.055,5.479,3.055,12.42s-0.199,9.563-3.055,12.42c-1.859,1.86-4.384,2.989-7.539,2.989
			c-3.154,0-5.711-1.096-7.571-2.989c-2.856-2.856-3.022-5.479-3.022-12.42s0.166-9.564,3.022-12.42
			c1.86-1.86,4.417-2.989,7.571-2.989C333.56,24.608,336.084,25.704,337.943,27.597z M325.191,29.622
			c-1.927,1.959-2.126,4.151-2.126,10.395c0,6.21,0.199,8.435,2.126,10.395c1.395,1.395,3.188,2.125,5.246,2.125
			c2.026,0,3.819-0.73,5.248-2.125c1.926-1.96,2.125-4.185,2.125-10.395s-0.199-8.435-2.125-10.395
			c-1.396-1.395-3.188-2.125-5.248-2.125C328.379,27.497,326.586,28.228,325.191,29.622z"/>
		<path d="M385.896,55.16h-3.055l-16.106-24.309v24.276h-3.222V24.84h3.056l16.073,24.208V24.84h3.221L385.896,55.16L385.896,55.16z
			"/>
	</g>
	<g>
		<path fill="#006EBE" d="M91.235,45.529h-1.727V34.471h1.727V45.529z"/>
	</g>
	<g>
		<path fill="#006EBE" d="M74.398,43.77c0.1,1.162,0.199,2.291,0.365,3.354c0.166,1.129,0.333,2.225,0.565,3.255
			c0.199,1.029,0.465,2.092,0.73,3.122c0.266,1.029,0.598,2.025,0.93,2.955c0.332,0.996,0.697,1.926,1.096,2.789
			c0.398,0.963,0.83,1.793,1.229,2.624c0.432,0.83,0.896,1.66,1.395,2.425c0.498,0.797,0.996,1.527,1.527,2.191
			c0.531,0.697,1.096,1.361,1.661,1.959c0.133,0.133,0.232,0.232,0.299,0.332c0.299,0.332,0.398,0.432,0.863,0.83l0.033,0.033
			l1.129-1.328l-0.033-0.033c-0.432-0.365-0.498-0.432-0.73-0.697c-0.066-0.1-0.166-0.199-0.299-0.332
			c-0.531-0.564-1.063-1.195-1.561-1.826c-0.499-0.631-0.963-1.296-1.428-2.06c-0.465-0.73-0.896-1.494-1.328-2.292
			c-0.399-0.797-0.797-1.627-1.196-2.49c-0.365-0.83-0.697-1.693-1.029-2.689c-0.332-0.93-0.631-1.893-0.897-2.855
			c-0.266-0.997-0.531-2.026-0.73-3.023c-0.199-1.029-0.398-2.059-0.531-3.121s-0.266-2.158-0.332-3.254
			c-0.066-0.797-0.1-1.66-0.133-2.524h-1.76C74.298,42.043,74.332,42.939,74.398,43.77z"/>
		<path fill="#006EBE" d="M76.059,36.696c0.066-1.063,0.133-2.192,0.266-3.254c0.133-1.096,0.266-2.125,0.465-3.155
			c0.166-0.963,0.398-1.993,0.631-3.022c0.266-0.997,0.532-1.959,0.831-2.889c0.299-0.93,0.631-1.86,0.963-2.723
			c0.332-0.831,0.697-1.694,1.129-2.524c0.399-0.797,0.831-1.594,1.262-2.325s0.896-1.428,1.395-2.092s0.997-1.295,1.495-1.859
			c0.1-0.1,0.166-0.2,0.232-0.266c0.332-0.365,0.432-0.498,0.863-0.896l0.033-0.033l-1.162-1.295l-0.033,0.033
			c-0.531,0.465-0.664,0.631-1.03,1.063l-0.199,0.232c-0.564,0.631-1.096,1.295-1.627,2.026c-0.498,0.697-0.997,1.461-1.461,2.225
			c-0.465,0.764-0.896,1.594-1.328,2.457c-0.432,0.864-0.83,1.76-1.163,2.657c-0.365,0.897-0.697,1.86-1.029,2.823
			c-0.299,0.93-0.598,1.926-0.863,2.989c-0.266,1.03-0.465,2.092-0.664,3.122c-0.2,1.029-0.366,2.158-0.465,3.254
			c-0.133,1.162-0.232,2.291-0.266,3.387c-0.033,0.863-0.066,1.727-0.066,2.557h1.76C76.025,38.29,76.025,37.459,76.059,36.696z"/>
		<path fill="#006EBE" d="M79.379,43.338c0.066,1.029,0.166,2.025,0.299,2.955c0.133,0.963,0.266,1.926,0.465,2.855
			c0.199,0.964,0.398,1.86,0.598,2.724c0.232,0.897,0.498,1.761,0.764,2.591s0.564,1.66,0.896,2.457s0.664,1.594,1.029,2.291
			c0.366,0.73,0.731,1.428,1.163,2.125c0.398,0.698,0.83,1.329,1.262,1.927l0.033,0.033l1.428-1.029l-0.033-0.033
			c-0.398-0.564-0.797-1.163-1.196-1.794c-0.398-0.631-0.73-1.328-1.096-1.992c-0.332-0.664-0.631-1.395-0.963-2.191
			c-0.299-0.764-0.598-1.561-0.864-2.357s-0.498-1.628-0.73-2.491c-0.199-0.83-0.398-1.694-0.598-2.624
			c-0.166-0.93-0.332-1.826-0.432-2.756c-0.133-0.896-0.199-1.859-0.299-2.855c-0.066-0.73-0.1-1.461-0.1-2.126h-1.76
			C79.313,41.844,79.346,42.574,79.379,43.338z"/>
		<path fill="#006EBE" d="M81.073,37.028c0.033-0.963,0.1-1.926,0.199-2.856c0.1-0.896,0.232-1.827,0.365-2.756
			c0.133-0.83,0.299-1.694,0.531-2.624c0.199-0.93,0.432-1.727,0.664-2.524s0.498-1.594,0.797-2.358
			c0.266-0.73,0.598-1.494,0.93-2.191c0.332-0.698,0.664-1.362,1.029-2.026s0.764-1.262,1.129-1.827l0.033-0.033l-1.461-0.996
			l-0.033,0.033c-0.432,0.631-0.83,1.295-1.229,1.959c-0.398,0.697-0.764,1.428-1.096,2.158c-0.332,0.764-0.664,1.528-0.963,2.325
			c-0.299,0.83-0.598,1.661-0.83,2.458s-0.465,1.661-0.698,2.624c-0.199,0.93-0.398,1.86-0.531,2.756
			c-0.166,0.93-0.299,1.893-0.398,2.856s-0.166,1.959-0.232,2.956c-0.033,0.697-0.033,1.428-0.066,2.159h1.76
			C81.007,38.389,81.04,37.692,81.073,37.028z"/>
		<path fill="#006EBE" d="M70.978,36.297c0.066-1.229,0.166-2.458,0.299-3.62c0.133-1.129,0.299-2.291,0.531-3.52
			c0.199-1.096,0.465-2.225,0.764-3.354c0.266-1.063,0.598-2.125,0.963-3.188s0.73-2.059,1.129-3.022
			c0.066-0.166,0.133-0.299,0.166-0.432c0.266-0.598,0.366-0.831,0.731-1.594l0.033-0.066l-1.528-0.797l-0.033,0.066
			c-0.398,0.797-0.531,1.063-0.797,1.694l-0.199,0.432c-0.398,0.996-0.83,2.025-1.196,3.122c-0.365,1.096-0.697,2.192-0.996,3.321
			c-0.299,1.162-0.564,2.325-0.764,3.487c-0.232,1.196-0.398,2.424-0.564,3.62c-0.133,1.229-0.266,2.491-0.333,3.753
			c-0.066,0.996-0.066,1.992-0.066,2.956h1.727C70.911,38.19,70.911,37.26,70.978,36.297z"/>
		<path fill="#006EBE" d="M65.896,35.932c0.066-1.329,0.199-2.69,0.365-4.052c0.166-1.295,0.366-2.59,0.631-3.885l0.033-0.232
			c0.199-1.096,0.266-1.362,0.564-2.491v-0.066l-1.661-0.465v0.066c-0.299,1.162-0.365,1.527-0.598,2.624l-0.033,0.232
			c-0.266,1.295-0.465,2.657-0.631,4.018c-0.166,1.428-0.299,2.823-0.365,4.151c-0.066,1.096-0.1,2.258-0.1,3.387h1.727
			C65.797,38.124,65.83,37.028,65.896,35.932z"/>
		<path fill="#006EBE" d="M84.527,42.807c0.066,0.863,0.133,1.693,0.232,2.49c0.1,0.83,0.232,1.66,0.365,2.424
			c0.133,0.797,0.299,1.594,0.465,2.324c0.199,0.798,0.398,1.528,0.598,2.192c0.233,0.731,0.465,1.429,0.698,2.093l0.033,0.066
			l1.627-0.598l-0.033-0.066c-0.232-0.664-0.465-1.329-0.664-1.993s-0.398-1.395-0.564-2.093c-0.166-0.764-0.332-1.494-0.465-2.225
			c-0.133-0.797-0.266-1.561-0.332-2.324c-0.1-0.764-0.167-1.594-0.233-2.391c-0.033-0.531-0.066-1.063-0.066-1.628H84.46
			C84.46,41.645,84.494,42.242,84.527,42.807z"/>
		<path fill="#006EBE" d="M86.22,37.426c0.033-0.797,0.1-1.594,0.167-2.391c0.1-0.83,0.166-1.594,0.299-2.325
			c0.133-0.764,0.266-1.527,0.398-2.225c0.133-0.698,0.332-1.395,0.498-2.125c0.199-0.73,0.398-1.362,0.631-1.993l0.033-0.066
			l-1.627-0.564l-0.033,0.066c-0.233,0.631-0.432,1.328-0.665,2.092c-0.199,0.764-0.398,1.494-0.531,2.225
			c-0.166,0.73-0.299,1.527-0.432,2.324c-0.1,0.764-0.199,1.561-0.299,2.424c-0.1,0.864-0.133,1.694-0.166,2.491
			c-0.033,0.598-0.033,1.162-0.033,1.694h1.727C86.187,38.522,86.187,37.991,86.22,37.426z"/>
		<path fill="#006EBE" d="M69.384,44.201c0.1,1.229,0.232,2.49,0.398,3.752c0.166,1.229,0.398,2.458,0.631,3.62
			c0.266,1.196,0.531,2.358,0.863,3.454c0.332,1.129,0.664,2.225,1.063,3.287c0.365,1.029,0.797,2.059,1.262,3.121
			c0.465,0.997,0.564,1.229,1.063,2.159l0.033,0.066l1.528-0.83l-0.033-0.066c-0.498-0.896-0.598-1.096-0.996-2.026
			c-0.432-0.963-0.831-1.959-1.196-2.988s-0.73-2.092-1.029-3.188c-0.299-1.063-0.564-2.126-0.831-3.354
			c-0.232-1.097-0.432-2.292-0.631-3.487c-0.166-1.195-0.299-2.424-0.398-3.619c-0.066-0.963-0.133-1.926-0.133-2.923H69.25
			C69.251,42.176,69.284,43.205,69.384,44.201z"/>
		<path fill="#006EBE" d="M64.27,44.666c0.1,1.395,0.266,2.789,0.465,4.15c0.199,1.362,0.465,2.69,0.73,3.986
			c0.299,1.328,0.398,1.76,0.764,2.988l0.033,0.066l1.661-0.498v-0.066c-0.332-1.162-0.465-1.561-0.73-2.856
			c-0.266-1.295-0.531-2.591-0.731-3.886c-0.199-1.328-0.365-2.689-0.465-4.018c-0.1-1.129-0.133-2.258-0.166-3.354h-1.727
			C64.104,42.342,64.17,43.504,64.27,44.666z"/>
	</g>
</g>
</svg>
