<?xml version="1.0" encoding="UTF-8"?>
<!DOCTYPE svg PUBLIC "-//W3C//DTD SVG 1.1//EN" "http://www.w3.org/Graphics/SVG/1.1/DTD/svg11.dtd">
<svg xmlns="http://www.w3.org/2000/svg" version="1.1" width="500px" height="280px" style="shape-rendering:geometricPrecision; text-rendering:geometricPrecision; image-rendering:optimizeQuality; fill-rule:evenodd; clip-rule:evenodd" xmlns:xlink="http://www.w3.org/1999/xlink">
<g><path style="opacity:0.947" fill="#0054d5" d="M 74.5,110.5 C 86.8863,110.106 99.2196,110.606 111.5,112C 124.659,117.486 129.492,127.319 126,141.5C 123.592,148.909 118.758,154.076 111.5,157C 104.979,158.942 98.3126,159.775 91.5,159.5C 91.5,164.167 91.5,168.833 91.5,173.5C 84.8333,173.5 78.1667,173.5 71.5,173.5C 71.5,152.833 71.5,132.167 71.5,111.5C 72.791,111.737 73.791,111.404 74.5,110.5 Z M 91.5,122.5 C 106.274,123.543 110.274,130.709 103.5,144C 99.7686,146.099 95.7686,147.266 91.5,147.5C 91.5,139.167 91.5,130.833 91.5,122.5 Z"/></g>
<g><path style="opacity:0.95" fill="#0054d5" d="M 320.5,110.5 C 332.553,110.109 344.553,110.609 356.5,112C 366.956,115.569 372.289,122.902 372.5,134C 371.69,146.467 365.356,154.467 353.5,158C 347.888,159.131 342.221,159.631 336.5,159.5C 336.5,164.167 336.5,168.833 336.5,173.5C 329.833,173.5 323.167,173.5 316.5,173.5C 316.5,152.833 316.5,132.167 316.5,111.5C 318.099,111.768 319.432,111.434 320.5,110.5 Z M 336.5,122.5 C 349.052,122.534 353.885,128.534 351,140.5C 347.665,145.69 342.831,148.024 336.5,147.5C 336.5,139.167 336.5,130.833 336.5,122.5 Z"/></g>
<g><path style="opacity:0.926" fill="#0054d5" d="M 392.5,110.5 C 402.194,110.307 411.861,110.64 421.5,111.5C 421.92,116.512 422.087,121.512 422,126.5C 414.756,123.755 407.256,122.921 399.5,124C 395.6,126.951 395.933,129.618 400.5,132C 408.619,134.311 416.119,137.811 423,142.5C 430.865,158.917 426.032,169.417 408.5,174C 398.025,175.096 387.692,174.429 377.5,172C 376.363,167.22 375.363,162.386 374.5,157.5C 374.833,157.167 375.167,156.833 375.5,156.5C 384.082,160.516 393.082,162.016 402.5,161C 406.795,159.155 407.462,156.488 404.5,153C 396.19,150.095 388.357,146.262 381,141.5C 372.802,126.598 376.635,116.265 392.5,110.5 Z"/></g>
<g><path style="opacity:0.952" fill="#0054d5" d="M 133.5,111.5 C 140.167,111.5 146.833,111.5 153.5,111.5C 153.5,119.5 153.5,127.5 153.5,135.5C 159.833,135.5 166.167,135.5 172.5,135.5C 172.5,127.5 172.5,119.5 172.5,111.5C 179.167,111.5 185.833,111.5 192.5,111.5C 192.5,132.167 192.5,152.833 192.5,173.5C 185.833,173.5 179.167,173.5 172.5,173.5C 172.5,165.5 172.5,157.5 172.5,149.5C 166.167,149.5 159.833,149.5 153.5,149.5C 153.5,157.5 153.5,165.5 153.5,173.5C 146.833,173.5 140.167,173.5 133.5,173.5C 133.5,152.833 133.5,132.167 133.5,111.5 Z"/></g>
<g><path style="opacity:0.948" fill="#0054d5" d="M 205.5,111.5 C 212.167,111.5 218.833,111.5 225.5,111.5C 225.5,132.167 225.5,152.833 225.5,173.5C 218.833,173.5 212.167,173.5 205.5,173.5C 205.5,152.833 205.5,132.167 205.5,111.5 Z"/></g>
<g><path style="opacity:0.949" fill="#0054d5" d="M 238.5,111.5 C 245.167,111.5 251.833,111.5 258.5,111.5C 258.5,127.833 258.5,144.167 258.5,160.5C 264.5,160.5 270.5,160.5 276.5,160.5C 275.993,164.86 275.327,169.193 274.5,173.5C 262.5,173.5 250.5,173.5 238.5,173.5C 238.5,152.833 238.5,132.167 238.5,111.5 Z"/></g>
<g><path style="opacity:0.95" fill="#0054d5" d="M 282.5,111.5 C 289.167,111.5 295.833,111.5 302.5,111.5C 302.5,132.167 302.5,152.833 302.5,173.5C 295.833,173.5 289.167,173.5 282.5,173.5C 282.5,152.833 282.5,132.167 282.5,111.5 Z"/></g>
</svg>
