<svg width="168" height="28" viewBox="0 0 168 28" fill="none" xmlns="http://www.w3.org/2000/svg">
<path d="M0 27.1063V0H10.0408C16.6074 0 19.4707 3.81778 19.4707 9.00997C19.4707 14.9657 15.462 17.829 9.50628 17.829H5.30672V27.1063H0ZM5.30672 13.095H8.93361C12.2933 13.095 13.8967 11.4152 13.8967 8.93361C13.8967 6.41387 12.2933 4.77223 9.20085 4.77223H5.30672V13.095Z" fill="#00A054"/>
<path d="M22.5276 27.1063V8.4373H27.5289V11.1479H27.6052C29.0178 9.23903 31.0413 8.17005 33.2174 8.17005H33.5992V13.6295C33.0647 13.5913 32.5684 13.5913 32.2629 13.5913C29.1705 13.5913 27.5289 15.6529 27.5289 18.4781V27.1063H22.5276Z" fill="#00A054"/>
<path d="M43.4225 27.4499C38.3067 27.4499 34.5271 23.5939 34.5271 17.829C34.5271 12.1787 38.3067 8.17005 43.308 8.17005C45.4841 8.17005 47.4693 9.00996 48.8056 10.6134L48.8819 10.5753V8.4373H53.8832V27.1063H49.111V24.8919L49.0346 24.8538C47.7366 26.5336 45.8659 27.4499 43.4225 27.4499ZM44.3769 22.9449C46.9349 22.9449 49.111 20.9214 49.111 17.8672C49.111 14.8512 47.0494 12.6369 44.3769 12.6369C41.6663 12.6369 39.6047 14.6603 39.6047 17.8672C39.6047 20.8451 41.5518 22.9449 44.3769 22.9449Z" fill="#00A054"/>
<path d="M57.8734 27.1063V8.4373H62.8747V10.8425H62.951C64.44 9.08632 66.5779 8.17005 68.9068 8.17005C72.8773 8.17005 75.6643 10.308 75.6643 16.0347V27.1063H70.663V17.2946C70.663 13.744 69.4031 12.6369 67.0743 12.6369C64.5545 12.6369 62.8747 14.393 62.8747 17.7527V27.1063H57.8734Z" fill="#00A054"/>
<path d="M87.3807 27.4499C82.2648 27.4499 78.4852 23.5939 78.4852 17.829C78.4852 12.1787 82.2649 8.17005 87.2661 8.17005C89.4423 8.17005 91.4275 9.00996 92.7637 10.6134L92.8401 10.5753V8.4373H97.8414V27.1063H93.0692V24.8919L92.9928 24.8538C91.6948 26.5336 89.8241 27.4499 87.3807 27.4499ZM88.3351 22.9449C90.893 22.9449 93.0692 20.9214 93.0692 17.8672C93.0692 14.8512 91.0076 12.6369 88.3351 12.6369C85.6245 12.6369 83.5629 14.6603 83.5629 17.8672C83.5629 20.8451 85.51 22.9449 88.3351 22.9449Z" fill="#00A054"/>
<path d="M101.832 27.1063V8.4373H106.833V10.8807H106.871C108.36 9.08632 110.383 8.17005 112.445 8.17005C114.888 8.17005 116.835 9.08632 117.943 11.1097H118.019C119.546 9.16268 121.875 8.17005 124.547 8.17005C128.556 8.17005 131.114 10.5753 131.114 16.3019V27.1063H126.113V17.4854C126.113 14.5076 125.196 12.6369 122.868 12.6369C120.768 12.6369 119.05 14.4312 119.05 17.7909V27.1063H114.048V17.4854C114.048 14.5076 113.056 12.6369 110.765 12.6369C108.513 12.6369 106.833 14.4312 106.833 17.7909V27.1063H101.832Z" fill="#00A054"/>
<path d="M142.859 27.4499C137.743 27.4499 133.964 23.5939 133.964 17.829C133.964 12.1787 137.743 8.17005 142.745 8.17005C144.921 8.17005 146.906 9.00996 148.242 10.6134L148.319 10.5753V8.4373H153.32V27.1063H148.548V24.8919L148.471 24.8538C147.173 26.5336 145.303 27.4499 142.859 27.4499ZM143.814 22.9449C146.372 22.9449 148.548 20.9214 148.548 17.8672C148.548 14.8512 146.486 12.6369 143.814 12.6369C141.103 12.6369 139.042 14.6603 139.042 17.8672C139.042 20.8451 140.989 22.9449 143.814 22.9449Z" fill="#00A054"/>
<path d="M163.075 27.4499C159.868 27.4499 157.768 25.4264 157.768 21.2269V12.5987H155.554V8.4373H157.768V2.36703L162.77 1.83253V8.4373H167.809V12.5987H162.77V20.5015C162.77 22.1431 163.19 22.9067 164.373 22.9067C164.984 22.9067 165.9 22.6776 166.74 22.2577L168 26.2663C166.816 26.9154 165.595 27.4499 163.075 27.4499Z" fill="#00A054"/>
</svg>
